<svg xmlns="http://www.w3.org/2000/svg" xmlns:xlink="http://www.w3.org/1999/xlink" width="1730" zoomAndPan="magnify" viewBox="0 0 1297.5 225" height="300" preserveAspectRatio="xMidYMid meet" version="1.0"><defs><g/><clipPath id="9eb22a8acf"><path d="M 755.242188 37.675781 L 1016.242188 37.675781 L 1016.242188 189.175781 L 755.242188 189.175781 Z M 755.242188 37.675781 " clip-rule="nonzero"/></clipPath></defs><g clip-path="url(#9eb22a8acf)"><path fill="#ff1616" d="M 1015.773438 38.265625 C 1015.460938 37.898438 1015.003906 37.6875 1014.523438 37.6875 L 781.4375 37.6875 C 780.636719 37.6875 779.957031 38.265625 779.824219 39.058594 L 755.289062 187.253906 C 755.214844 187.730469 755.34375 188.214844 755.65625 188.582031 C 755.964844 188.949219 756.425781 189.160156 756.902344 189.160156 L 989.988281 189.160156 C 990.789062 189.160156 991.472656 188.582031 991.601562 187.789062 L 1016.136719 39.59375 C 1016.214844 39.121094 1016.082031 38.632812 1015.773438 38.265625 Z M 1015.773438 38.265625 " fill-opacity="1" fill-rule="nonzero"/></g><g fill="#000000" fill-opacity="1"><g transform="translate(258.963956, 129.522326)"><g><path d="M 25.234375 0.84375 C 18.585938 0.84375 13.265625 -1.238281 9.265625 -5.40625 C 5.273438 -9.582031 3.28125 -15.3125 3.28125 -22.59375 L 3.28125 -64.578125 C 3.28125 -73.628906 5.082031 -80.453125 8.6875 -85.046875 C 12.300781 -89.640625 17.957031 -91.9375 25.65625 -91.9375 C 32.375 -91.9375 37.785156 -90.097656 41.890625 -86.421875 C 45.992188 -82.742188 48.046875 -77.441406 48.046875 -70.515625 L 48.046875 -54.828125 L 29.90625 -54.828125 L 29.90625 -68.296875 C 29.90625 -70.910156 29.585938 -72.710938 28.953125 -73.703125 C 28.316406 -74.691406 27.21875 -75.1875 25.65625 -75.1875 C 24.03125 -75.1875 22.914062 -74.617188 22.3125 -73.484375 C 21.71875 -72.359375 21.421875 -70.695312 21.421875 -68.5 L 21.421875 -22.796875 C 21.421875 -20.390625 21.773438 -18.640625 22.484375 -17.546875 C 23.191406 -16.453125 24.25 -15.90625 25.65625 -15.90625 C 28.488281 -15.90625 29.90625 -18.203125 29.90625 -22.796875 L 29.90625 -39.234375 L 48.25 -39.234375 L 48.25 -22.0625 C 48.25 -6.789062 40.578125 0.84375 25.234375 0.84375 Z M 25.234375 0.84375 "/></g></g></g><g fill="#000000" fill-opacity="1"><g transform="translate(311.878873, 129.522326)"><g><path d="M 1.59375 0 L 10.390625 -91.09375 L 41.25 -91.09375 L 49.953125 0 L 32.65625 0 L 31.390625 -14.734375 L 20.359375 -14.734375 L 19.296875 0 Z M 21.734375 -29.265625 L 30.015625 -29.265625 L 25.984375 -75.609375 L 25.140625 -75.609375 Z M 21.734375 -29.265625 "/></g></g></g><g fill="#000000" fill-opacity="1"><g transform="translate(365.960235, 129.522326)"><g><path d="M 4.03125 -91.09375 L 32.03125 -91.09375 C 36.476562 -91.09375 39.921875 -90.082031 42.359375 -88.0625 C 44.804688 -86.050781 46.453125 -83.222656 47.296875 -79.578125 C 48.140625 -75.941406 48.5625 -71.296875 48.5625 -65.640625 C 48.5625 -60.484375 47.890625 -56.453125 46.546875 -53.546875 C 45.210938 -50.648438 42.882812 -48.640625 39.5625 -47.515625 C 42.3125 -46.941406 44.304688 -45.554688 45.546875 -43.359375 C 46.785156 -41.171875 47.40625 -38.207031 47.40625 -34.46875 L 47.1875 0 L 29.375 0 L 29.375 -35.625 C 29.375 -38.175781 28.878906 -39.804688 27.890625 -40.515625 C 26.898438 -41.222656 25.097656 -41.578125 22.484375 -41.578125 L 22.484375 0 L 4.03125 0 Z M 26.9375 -57.375 C 29.476562 -57.375 30.75 -60.128906 30.75 -65.640625 C 30.75 -68.046875 30.644531 -69.847656 30.4375 -71.046875 C 30.226562 -72.253906 29.835938 -73.085938 29.265625 -73.546875 C 28.703125 -74.003906 27.890625 -74.234375 26.828125 -74.234375 L 22.59375 -74.234375 L 22.59375 -57.375 Z M 26.9375 -57.375 "/></g></g></g><g fill="#000000" fill-opacity="1"><g transform="translate(419.19327, 129.522326)"><g><path d="M 25.65625 0.84375 C 17.382812 0.84375 11.410156 -1.203125 7.734375 -5.296875 C 4.066406 -9.398438 2.234375 -16.015625 2.234375 -25.140625 L 2.234375 -34.046875 L 20.15625 -34.046875 L 20.15625 -22.6875 C 20.15625 -18.164062 21.601562 -15.90625 24.5 -15.90625 C 26.125 -15.90625 27.253906 -16.378906 27.890625 -17.328125 C 28.523438 -18.285156 28.84375 -19.894531 28.84375 -22.15625 C 28.84375 -25.132812 28.488281 -27.59375 27.78125 -29.53125 C 27.070312 -31.476562 26.171875 -33.101562 25.078125 -34.40625 C 23.984375 -35.71875 22.019531 -37.753906 19.1875 -40.515625 L 11.34375 -48.359375 C 5.269531 -54.296875 2.234375 -60.867188 2.234375 -68.078125 C 2.234375 -75.859375 4.015625 -81.78125 7.578125 -85.84375 C 11.148438 -89.90625 16.363281 -91.9375 23.21875 -91.9375 C 31.425781 -91.9375 37.332031 -89.765625 40.9375 -85.421875 C 44.539062 -81.078125 46.34375 -74.269531 46.34375 -65 L 27.78125 -65 L 27.671875 -71.265625 C 27.671875 -72.460938 27.332031 -73.414062 26.65625 -74.125 C 25.988281 -74.832031 25.054688 -75.1875 23.859375 -75.1875 C 22.441406 -75.1875 21.378906 -74.796875 20.671875 -74.015625 C 19.972656 -73.242188 19.625 -72.1875 19.625 -70.84375 C 19.625 -67.875 21.316406 -64.796875 24.703125 -61.609375 L 35.3125 -51.4375 C 37.789062 -49.03125 39.84375 -46.75 41.46875 -44.59375 C 43.09375 -42.4375 44.398438 -39.890625 45.390625 -36.953125 C 46.378906 -34.023438 46.875 -30.546875 46.875 -26.515625 C 46.875 -17.535156 45.226562 -10.726562 41.9375 -6.09375 C 38.65625 -1.46875 33.226562 0.84375 25.65625 0.84375 Z M 25.65625 0.84375 "/></g></g></g><g fill="#000000" fill-opacity="1"><g transform="translate(470.729653, 129.522326)"><g><path d="M 4.03125 0 L 4.03125 -91.09375 L 40.515625 -91.09375 L 40.515625 -73.484375 L 22.59375 -73.484375 L 22.59375 -55.78125 L 39.765625 -55.78125 L 39.765625 -38.59375 L 22.59375 -38.59375 L 22.59375 -17.703125 L 41.671875 -17.703125 L 41.671875 0 Z M 4.03125 0 "/></g></g></g><g fill="#000000" fill-opacity="1"><g transform="translate(517.070024, 129.522326)"><g><path d="M 4.03125 -91.09375 L 32.03125 -91.09375 C 36.476562 -91.09375 39.921875 -90.082031 42.359375 -88.0625 C 44.804688 -86.050781 46.453125 -83.222656 47.296875 -79.578125 C 48.140625 -75.941406 48.5625 -71.296875 48.5625 -65.640625 C 48.5625 -60.484375 47.890625 -56.453125 46.546875 -53.546875 C 45.210938 -50.648438 42.882812 -48.640625 39.5625 -47.515625 C 42.3125 -46.941406 44.304688 -45.554688 45.546875 -43.359375 C 46.785156 -41.171875 47.40625 -38.207031 47.40625 -34.46875 L 47.1875 0 L 29.375 0 L 29.375 -35.625 C 29.375 -38.175781 28.878906 -39.804688 27.890625 -40.515625 C 26.898438 -41.222656 25.097656 -41.578125 22.484375 -41.578125 L 22.484375 0 L 4.03125 0 Z M 26.9375 -57.375 C 29.476562 -57.375 30.75 -60.128906 30.75 -65.640625 C 30.75 -68.046875 30.644531 -69.847656 30.4375 -71.046875 C 30.226562 -72.253906 29.835938 -73.085938 29.265625 -73.546875 C 28.703125 -74.003906 27.890625 -74.234375 26.828125 -74.234375 L 22.59375 -74.234375 L 22.59375 -57.375 Z M 26.9375 -57.375 "/></g></g></g><g fill="#000000" fill-opacity="1"><g transform="translate(570.30306, 129.522326)"><g><path d="M 12.40625 0 L 1.171875 -91.203125 L 18.5625 -91.203125 L 25.234375 -29.15625 L 31.171875 -91.203125 L 48.5625 -91.203125 L 37.328125 0 Z M 12.40625 0 "/></g></g></g><g fill="#000000" fill-opacity="1"><g transform="translate(622.687769, 129.522326)"><g><path d="M 3.1875 0 L 3.1875 -91.09375 L 20.78125 -91.09375 L 20.78125 0 Z M 3.1875 0 "/></g></g></g><g fill="#000000" fill-opacity="1"><g transform="translate(649.410537, 129.522326)"><g><path d="M 25.234375 0.84375 C 18.585938 0.84375 13.265625 -1.238281 9.265625 -5.40625 C 5.273438 -9.582031 3.28125 -15.3125 3.28125 -22.59375 L 3.28125 -64.578125 C 3.28125 -73.628906 5.082031 -80.453125 8.6875 -85.046875 C 12.300781 -89.640625 17.957031 -91.9375 25.65625 -91.9375 C 32.375 -91.9375 37.785156 -90.097656 41.890625 -86.421875 C 45.992188 -82.742188 48.046875 -77.441406 48.046875 -70.515625 L 48.046875 -54.828125 L 29.90625 -54.828125 L 29.90625 -68.296875 C 29.90625 -70.910156 29.585938 -72.710938 28.953125 -73.703125 C 28.316406 -74.691406 27.21875 -75.1875 25.65625 -75.1875 C 24.03125 -75.1875 22.914062 -74.617188 22.3125 -73.484375 C 21.71875 -72.359375 21.421875 -70.695312 21.421875 -68.5 L 21.421875 -22.796875 C 21.421875 -20.390625 21.773438 -18.640625 22.484375 -17.546875 C 23.191406 -16.453125 24.25 -15.90625 25.65625 -15.90625 C 28.488281 -15.90625 29.90625 -18.203125 29.90625 -22.796875 L 29.90625 -39.234375 L 48.25 -39.234375 L 48.25 -22.0625 C 48.25 -6.789062 40.578125 0.84375 25.234375 0.84375 Z M 25.234375 0.84375 "/></g></g></g><g fill="#000000" fill-opacity="1"><g transform="translate(702.325454, 129.522326)"><g><path d="M 4.03125 0 L 4.03125 -91.09375 L 40.515625 -91.09375 L 40.515625 -73.484375 L 22.59375 -73.484375 L 22.59375 -55.78125 L 39.765625 -55.78125 L 39.765625 -38.59375 L 22.59375 -38.59375 L 22.59375 -17.703125 L 41.671875 -17.703125 L 41.671875 0 Z M 4.03125 0 "/></g></g></g><g fill="#a6a6a6" fill-opacity="1"><g transform="translate(550.147982, 183.300165)"><g><path d="M 6.71875 -13.78125 L 5.875 -9.546875 L 13.78125 -9.546875 L 13.296875 -7.046875 L 5.359375 -7.046875 L 4.484375 -2.546875 L 13.71875 -2.546875 L 13.203125 0 L 0.953125 0 L 4.21875 -16.328125 L 16.140625 -16.328125 L 15.625 -13.78125 Z M 6.71875 -13.78125 "/></g></g></g><g fill="#a6a6a6" fill-opacity="1"><g transform="translate(575.102958, 183.300165)"><g><path d="M 6.296875 0.234375 C 5.035156 0.234375 3.828125 0.0546875 2.671875 -0.296875 C 1.523438 -0.660156 0.628906 -1.117188 -0.015625 -1.671875 L 1.265625 -4.0625 C 1.941406 -3.519531 2.75 -3.085938 3.6875 -2.765625 C 4.632812 -2.441406 5.597656 -2.28125 6.578125 -2.28125 C 7.773438 -2.28125 8.726562 -2.484375 9.4375 -2.890625 C 10.144531 -3.304688 10.5 -3.875 10.5 -4.59375 C 10.5 -5 10.351562 -5.335938 10.0625 -5.609375 C 9.78125 -5.878906 9.421875 -6.097656 8.984375 -6.265625 C 8.554688 -6.441406 7.960938 -6.640625 7.203125 -6.859375 C 6.148438 -7.171875 5.296875 -7.46875 4.640625 -7.75 C 3.984375 -8.039062 3.421875 -8.472656 2.953125 -9.046875 C 2.492188 -9.628906 2.265625 -10.378906 2.265625 -11.296875 C 2.265625 -12.347656 2.5625 -13.269531 3.15625 -14.0625 C 3.757812 -14.851562 4.597656 -15.46875 5.671875 -15.90625 C 6.742188 -16.34375 7.976562 -16.5625 9.375 -16.5625 C 10.4375 -16.5625 11.441406 -16.441406 12.390625 -16.203125 C 13.335938 -15.960938 14.15625 -15.625 14.84375 -15.1875 L 13.640625 -12.78125 C 13.035156 -13.1875 12.351562 -13.5 11.59375 -13.71875 C 10.832031 -13.9375 10.039062 -14.046875 9.21875 -14.046875 C 8 -14.046875 7.035156 -13.820312 6.328125 -13.375 C 5.617188 -12.9375 5.265625 -12.351562 5.265625 -11.625 C 5.265625 -11.195312 5.410156 -10.84375 5.703125 -10.5625 C 6.003906 -10.28125 6.363281 -10.054688 6.78125 -9.890625 C 7.207031 -9.734375 7.820312 -9.53125 8.625 -9.28125 C 9.65625 -8.988281 10.492188 -8.703125 11.140625 -8.421875 C 11.796875 -8.140625 12.351562 -7.726562 12.8125 -7.1875 C 13.269531 -6.644531 13.5 -5.9375 13.5 -5.0625 C 13.5 -3.988281 13.195312 -3.054688 12.59375 -2.265625 C 12 -1.472656 11.15625 -0.859375 10.0625 -0.421875 C 8.96875 0.015625 7.710938 0.234375 6.296875 0.234375 Z M 6.296875 0.234375 "/></g></g></g><g fill="#a6a6a6" fill-opacity="1"><g transform="translate(599.101974, 183.300165)"><g><path d="M 7.015625 -13.765625 L 1.609375 -13.765625 L 2.125 -16.328125 L 15.984375 -16.328125 L 15.4375 -13.765625 L 10.03125 -13.765625 L 7.296875 0 L 4.265625 0 Z M 7.015625 -13.765625 "/></g></g></g><g fill="#a6a6a6" fill-opacity="1"><g transform="translate(622.471448, 183.300165)"><g/></g></g><g fill="#a6a6a6" fill-opacity="1"><g transform="translate(638.239858, 183.300165)"><g><path d="M 4.625 -2.5625 L 12.125 -2.5625 L 11.59375 0 L -0.421875 0 L -0.015625 -2.03125 L 7.671875 -8.125 C 8.671875 -8.914062 9.359375 -9.585938 9.734375 -10.140625 C 10.117188 -10.703125 10.3125 -11.285156 10.3125 -11.890625 C 10.3125 -12.546875 10.070312 -13.054688 9.59375 -13.421875 C 9.125 -13.785156 8.429688 -13.96875 7.515625 -13.96875 C 6.785156 -13.96875 6.082031 -13.816406 5.40625 -13.515625 C 4.738281 -13.210938 4.148438 -12.78125 3.640625 -12.21875 L 1.59375 -13.859375 C 2.269531 -14.679688 3.164062 -15.335938 4.28125 -15.828125 C 5.40625 -16.316406 6.625 -16.5625 7.9375 -16.5625 C 9.050781 -16.5625 10.019531 -16.378906 10.84375 -16.015625 C 11.664062 -15.660156 12.296875 -15.160156 12.734375 -14.515625 C 13.171875 -13.867188 13.390625 -13.132812 13.390625 -12.3125 C 13.390625 -11.320312 13.113281 -10.382812 12.5625 -9.5 C 12.019531 -8.613281 11.066406 -7.632812 9.703125 -6.5625 Z M 4.625 -2.5625 "/></g></g></g><g fill="#a6a6a6" fill-opacity="1"><g transform="translate(661.143022, 183.300165)"><g><path d="M 6.90625 0.234375 C 5.132812 0.234375 3.738281 -0.300781 2.71875 -1.375 C 1.695312 -2.445312 1.1875 -3.941406 1.1875 -5.859375 C 1.1875 -7.785156 1.535156 -9.566406 2.234375 -11.203125 C 2.941406 -12.847656 3.925781 -14.148438 5.1875 -15.109375 C 6.457031 -16.078125 7.914062 -16.5625 9.5625 -16.5625 C 11.332031 -16.5625 12.722656 -16.023438 13.734375 -14.953125 C 14.742188 -13.878906 15.25 -12.382812 15.25 -10.46875 C 15.25 -8.539062 14.898438 -6.753906 14.203125 -5.109375 C 13.503906 -3.472656 12.519531 -2.171875 11.25 -1.203125 C 9.988281 -0.242188 8.539062 0.234375 6.90625 0.234375 Z M 7.15625 -2.40625 C 8.1875 -2.40625 9.082031 -2.816406 9.84375 -3.640625 C 10.601562 -4.460938 11.1875 -5.492188 11.59375 -6.734375 C 12 -7.984375 12.203125 -9.207031 12.203125 -10.40625 C 12.203125 -11.550781 11.945312 -12.421875 11.4375 -13.015625 C 10.9375 -13.617188 10.226562 -13.921875 9.3125 -13.921875 C 8.28125 -13.921875 7.375 -13.507812 6.59375 -12.6875 C 5.820312 -11.863281 5.234375 -10.828125 4.828125 -9.578125 C 4.421875 -8.335938 4.21875 -7.117188 4.21875 -5.921875 C 4.21875 -4.753906 4.472656 -3.875 4.984375 -3.28125 C 5.503906 -2.695312 6.226562 -2.40625 7.15625 -2.40625 Z M 7.15625 -2.40625 "/></g></g></g><g fill="#a6a6a6" fill-opacity="1"><g transform="translate(686.144657, 183.300165)"><g><path d="M 4.625 -2.5625 L 12.125 -2.5625 L 11.59375 0 L -0.421875 0 L -0.015625 -2.03125 L 7.671875 -8.125 C 8.671875 -8.914062 9.359375 -9.585938 9.734375 -10.140625 C 10.117188 -10.703125 10.3125 -11.285156 10.3125 -11.890625 C 10.3125 -12.546875 10.070312 -13.054688 9.59375 -13.421875 C 9.125 -13.785156 8.429688 -13.96875 7.515625 -13.96875 C 6.785156 -13.96875 6.082031 -13.816406 5.40625 -13.515625 C 4.738281 -13.210938 4.148438 -12.78125 3.640625 -12.21875 L 1.59375 -13.859375 C 2.269531 -14.679688 3.164062 -15.335938 4.28125 -15.828125 C 5.40625 -16.316406 6.625 -16.5625 7.9375 -16.5625 C 9.050781 -16.5625 10.019531 -16.378906 10.84375 -16.015625 C 11.664062 -15.660156 12.296875 -15.160156 12.734375 -14.515625 C 13.171875 -13.867188 13.390625 -13.132812 13.390625 -12.3125 C 13.390625 -11.320312 13.113281 -10.382812 12.5625 -9.5 C 12.019531 -8.613281 11.066406 -7.632812 9.703125 -6.5625 Z M 4.625 -2.5625 "/></g></g></g><g fill="#a6a6a6" fill-opacity="1"><g transform="translate(709.047821, 183.300165)"><g><path d="M 13.578125 -14.296875 L 8.625 -9.515625 C 9.820312 -9.296875 10.75 -8.820312 11.40625 -8.09375 C 12.0625 -7.375 12.390625 -6.460938 12.390625 -5.359375 C 12.390625 -4.285156 12.082031 -3.328125 11.46875 -2.484375 C 10.863281 -1.640625 10.015625 -0.972656 8.921875 -0.484375 C 7.828125 -0.00390625 6.570312 0.234375 5.15625 0.234375 C 3.9375 0.234375 2.8125 0.0625 1.78125 -0.28125 C 0.757812 -0.625 -0.0664062 -1.101562 -0.703125 -1.71875 L 0.8125 -4.03125 C 1.3125 -3.539062 1.957031 -3.144531 2.75 -2.84375 C 3.539062 -2.550781 4.40625 -2.40625 5.34375 -2.40625 C 6.601562 -2.40625 7.582031 -2.648438 8.28125 -3.140625 C 8.976562 -3.628906 9.328125 -4.316406 9.328125 -5.203125 C 9.328125 -6.597656 8.28125 -7.296875 6.1875 -7.296875 L 4.71875 -7.296875 L 5.125 -9.375 L 9.6875 -13.78125 L 2.328125 -13.78125 L 2.84375 -16.328125 L 13.953125 -16.328125 Z M 13.578125 -14.296875 "/></g></g></g><g fill="#ffffff" fill-opacity="1"><g transform="translate(800.655909, 149.360558)"><g><path d="M -7.046875 0 L 16.796875 -72.875 L 41.484375 -72.875 L 31.640625 0 L 17.8125 0 L 19.5 -11.796875 L 10.6875 -11.796875 L 7.125 0 Z M 14.5 -23.421875 L 21.125 -23.421875 L 26.375 -60.5 L 25.703125 -60.5 Z M 14.5 -23.421875 "/></g></g></g><g fill="#ffffff" fill-opacity="1"><g transform="translate(843.49908, 149.360558)"><g><path d="M 11.703125 0.671875 C 5.703125 0.671875 1.644531 -1.019531 -0.46875 -4.40625 C -2.59375 -7.800781 -2.890625 -12.835938 -1.359375 -19.515625 L 10.9375 -72.875 L 25.109375 -72.875 L 12.890625 -20.109375 C 12.378906 -17.785156 12.191406 -15.972656 12.328125 -14.671875 C 12.472656 -13.367188 13.28125 -12.71875 14.75 -12.71875 C 16.226562 -12.71875 17.347656 -13.351562 18.109375 -14.625 C 18.867188 -15.90625 19.503906 -17.734375 20.015625 -20.109375 L 32.234375 -72.875 L 46.40625 -72.875 L 34.09375 -19.515625 C 32.570312 -12.835938 29.957031 -7.800781 26.25 -4.40625 C 22.539062 -1.019531 17.691406 0.671875 11.703125 0.671875 Z M 11.703125 0.671875 "/></g></g></g><g fill="#ffffff" fill-opacity="1"><g transform="translate(885.409038, 149.360558)"><g><path d="M 1.109375 0 L 14.671875 -58.875 L 6.03125 -58.875 L 9.25 -72.875 L 41.15625 -72.875 L 37.921875 -58.875 L 29.265625 -58.875 L 15.703125 0 Z M 1.109375 0 "/></g></g></g><g fill="#ffffff" fill-opacity="1"><g transform="translate(920.701653, 149.360558)"><g><path d="M 12.125 0.671875 C 6.238281 0.671875 2.179688 -1.117188 -0.046875 -4.703125 C -2.285156 -8.296875 -2.640625 -13.347656 -1.109375 -19.859375 L 6.859375 -54.546875 C 8.335938 -60.828125 10.96875 -65.566406 14.75 -68.765625 C 18.539062 -71.960938 23.378906 -73.5625 29.265625 -73.5625 C 35.148438 -73.5625 39.25 -71.960938 41.5625 -68.765625 C 43.882812 -65.566406 44.3125 -60.828125 42.84375 -54.546875 L 34.859375 -19.859375 C 33.335938 -13.296875 30.640625 -8.234375 26.765625 -4.671875 C 22.890625 -1.109375 18.007812 0.671875 12.125 0.671875 Z M 15.1875 -12.71875 C 16.476562 -12.71875 17.492188 -13.285156 18.234375 -14.421875 C 18.972656 -15.554688 19.566406 -17.140625 20.015625 -19.171875 L 28.25 -54.8125 C 28.582031 -56.394531 28.664062 -57.679688 28.5 -58.671875 C 28.332031 -59.660156 27.597656 -60.15625 26.296875 -60.15625 C 23.859375 -60.15625 22.21875 -58.316406 21.375 -54.640625 L 13.140625 -19.09375 C 12.628906 -17 12.5 -15.410156 12.75 -14.328125 C 13.007812 -13.253906 13.820312 -12.71875 15.1875 -12.71875 Z M 15.1875 -12.71875 "/></g></g></g><path stroke-linecap="round" transform="matrix(0.750376, 0.00486006, -0.00485752, 0.749984, 289.444611, 148.157273)" fill="none" stroke-linejoin="miter" d="M 1.499477 1.499367 L 596.195815 1.499851 " stroke="#000000" stroke-width="3" stroke-opacity="1" stroke-miterlimit="4"/></svg>